REM DIRINDEX 1\2\6,1\2\7,1\2\8,1\2\9,1\3\10,1\3\11,1\4\12,1\4\13,1\4\14,1\5\15,1\5\16,1\5\17
REM DIRNAME folder01,folder02,folder03,folder04,folder05,folder06,folder07,folder08,folder09,folder10,folder11,folder12,folder13,folder14,folder15,folder16,folder17
TITLE ""
FILE "1900_3_039 sec07_0631_0647.mp3" MP3
  TRACK 01 AUDIO
    TITLE "0:"
    INDEX 01 00:00:00
  TRACK 02 AUDIO
    TITLE "17:cjc020_7234"
    INDEX 01 00:00:19
  TRACK 03 AUDIO
    TITLE "0:"
    INDEX 01 00:01:52
  TRACK 04 AUDIO
    TITLE "16:cjc020_7235"
    INDEX 01 00:01:58
  TRACK 05 AUDIO
    TITLE "0:"
    INDEX 01 00:02:49
  TRACK 06 AUDIO
    TITLE "17:cjc020_7236"
    INDEX 01 00:03:33
  TRACK 07 AUDIO
    TITLE "0:"
    INDEX 01 00:05:14
  TRACK 08 AUDIO
    TITLE "16:cjc020_7237"
    INDEX 01 00:05:16
  TRACK 09 AUDIO
    TITLE "0:"
    INDEX 01 00:06:31
  TRACK 10 AUDIO
    TITLE "17:cjc020_7238"
    INDEX 01 00:07:11
  TRACK 11 AUDIO
    TITLE "0:"
    INDEX 01 00:08:38
  TRACK 12 AUDIO
    TITLE "16:cjc020_7239"
    INDEX 01 00:08:40
  TRACK 13 AUDIO
    TITLE "0:"
    INDEX 01 00:09:42
  TRACK 14 AUDIO
    TITLE "17:cjc020_7240"
    INDEX 01 00:10:23
  TRACK 15 AUDIO
    TITLE "0:"
    INDEX 01 00:11:27
  TRACK 16 AUDIO
    TITLE "16:cjc020_7241"
    INDEX 01 00:11:33
  TRACK 17 AUDIO
    TITLE "0:"
    INDEX 01 00:12:65
  TRACK 18 AUDIO
    TITLE "17:cjc020_7242"
    INDEX 01 00:13:55
  TRACK 19 AUDIO
    TITLE "0:"
    INDEX 01 00:14:54
  TRACK 20 AUDIO
    TITLE "16:cjc020_7243"
    INDEX 01 00:14:58
  TRACK 21 AUDIO
    TITLE "0:"
    INDEX 01 00:16:00
  TRACK 22 AUDIO
    TITLE "17:cjc020_7244"
    INDEX 01 00:16:59
  TRACK 23 AUDIO
    TITLE "0:"
    INDEX 01 00:17:69
  TRACK 24 AUDIO
    TITLE "16:cjc020_7245"
    INDEX 01 00:17:72
  TRACK 25 AUDIO
    TITLE "0:"
    INDEX 01 00:19:01
  TRACK 26 AUDIO
    TITLE "17:cjc020_7246"
    INDEX 01 00:19:62
  TRACK 27 AUDIO
    TITLE "0:"
    INDEX 01 00:20:73
  TRACK 28 AUDIO
    TITLE "16:cjc020_7247"
    INDEX 01 00:21:00
  TRACK 29 AUDIO
    TITLE "0:"
    INDEX 01 00:22:05
  TRACK 30 AUDIO
    TITLE "17:cjc020_7248"
    INDEX 01 00:22:64
  TRACK 31 AUDIO
    TITLE "0:"
    INDEX 01 00:24:16
  TRACK 32 AUDIO
    TITLE "16:cjc020_7249"
    INDEX 01 00:24:18
  TRACK 33 AUDIO
    TITLE "0:"
    INDEX 01 00:25:37
  TRACK 34 AUDIO
    TITLE "17:cjc020_7250"
    INDEX 01 00:26:20
  TRACK 35 AUDIO
    TITLE "0:"
    INDEX 01 00:27:41
  TRACK 36 AUDIO
    TITLE "16:cjc020_7251"
    INDEX 01 00:27:43
  TRACK 37 AUDIO
    TITLE "0:"
    INDEX 01 00:28:53
  TRACK 38 AUDIO
    TITLE "17:cjc020_7252"
    INDEX 01 00:29:42
  TRACK 39 AUDIO
    TITLE "0:"
    INDEX 01 00:30:55
  TRACK 40 AUDIO
    TITLE "16:cjc020_7253"
    INDEX 01 00:30:59
  TRACK 41 AUDIO
    TITLE "0:"
    INDEX 01 00:31:69
  TRACK 42 AUDIO
    TITLE "17:cjc020_7254"
    INDEX 01 00:32:50
  TRACK 43 AUDIO
    TITLE "0:"
    INDEX 01 00:34:67
  TRACK 44 AUDIO
    TITLE "16:cjc020_7255"
    INDEX 01 00:34:69
  TRACK 45 AUDIO
    TITLE "0:"
    INDEX 01 00:36:07
  TRACK 46 AUDIO
    TITLE "17:cjc020_7256"
    INDEX 01 00:36:66
  TRACK 47 AUDIO
    TITLE "0:"
    INDEX 01 00:37:69
  TRACK 48 AUDIO
    TITLE "16:cjc020_7257"
    INDEX 01 00:37:73
  TRACK 49 AUDIO
    TITLE "0:"
    INDEX 01 00:39:05
  TRACK 50 AUDIO
    TITLE "17:cjc020_7258"
    INDEX 01 00:39:60
  TRACK 51 AUDIO
    TITLE "0:"
    INDEX 01 00:40:70
  TRACK 52 AUDIO
    TITLE "16:cjc020_7259"
    INDEX 01 00:41:00
  TRACK 53 AUDIO
    TITLE "0:"
    INDEX 01 00:42:10
  TRACK 54 AUDIO
    TITLE "17:cjc020_7260"
    INDEX 01 00:42:65
  TRACK 55 AUDIO
    TITLE "0:"
    INDEX 01 00:43:66
  TRACK 56 AUDIO
    TITLE "16:cjc020_7261"
    INDEX 01 00:43:70
  TRACK 57 AUDIO
    TITLE "0:"
    INDEX 01 00:44:73
  TRACK 58 AUDIO
    TITLE "17:cjc020_7262"
    INDEX 01 00:45:57
  TRACK 59 AUDIO
    TITLE "0:"
    INDEX 01 00:46:45
  TRACK 60 AUDIO
    TITLE "16:cjc020_7263"
    INDEX 01 00:46:51
  TRACK 61 AUDIO
    TITLE "0:"
    INDEX 01 00:47:68
  TRACK 62 AUDIO
    TITLE "17:cjc020_7264"
    INDEX 01 00:48:51
  TRACK 63 AUDIO
    TITLE "0:"
    INDEX 01 00:49:47
  TRACK 64 AUDIO
    TITLE "16:cjc020_7265"
    INDEX 01 00:49:51
  TRACK 65 AUDIO
    TITLE "0:"
    INDEX 01 00:50:46
  TRACK 66 AUDIO
    TITLE "17:cjc020_7266"
    INDEX 01 00:51:28
  TRACK 67 AUDIO
    TITLE "0:"
    INDEX 01 00:52:41
  TRACK 68 AUDIO
    TITLE "16:cjc020_7267"
    INDEX 01 00:52:43
  TRACK 69 AUDIO
    TITLE "0:"
    INDEX 01 00:53:53
